<mxfile host="app.diagrams.net" modified="2023-11-12T10:20:48.352Z" agent="Mozilla/5.0 (Macintosh; Intel Mac OS X 10_15_7) AppleWebKit/605.1.15 (KHTML, like Gecko) Version/17.2 Safari/605.1.15" etag="TTZjvVsM7uhHZ-dE6W6V" version="22.1.0" type="device">
  <diagram name="Page-1" id="X210ehfOsoYvOg10hWQb">
    <mxGraphModel dx="1972" dy="1861" grid="1" gridSize="10" guides="1" tooltips="1" connect="1" arrows="1" fold="1" page="1" pageScale="1" pageWidth="850" pageHeight="1100" math="0" shadow="0">
      <root>
        <mxCell id="0" />
        <mxCell id="1" parent="0" />
        <mxCell id="LaFHYY9eFYEwbgQ2csjO-1" value="Client" style="rounded=0;whiteSpace=wrap;html=1;fillColor=#f8cecc;strokeColor=#b85450;" vertex="1" parent="1">
          <mxGeometry y="360" width="130" height="50" as="geometry" />
        </mxCell>
        <mxCell id="LaFHYY9eFYEwbgQ2csjO-2" value="" style="endArrow=classic;startArrow=classic;html=1;rounded=0;entryX=0.5;entryY=1;entryDx=0;entryDy=0;" edge="1" parent="1" target="LaFHYY9eFYEwbgQ2csjO-1">
          <mxGeometry width="50" height="50" relative="1" as="geometry">
            <mxPoint x="65" y="440" as="sourcePoint" />
            <mxPoint x="440" y="230" as="targetPoint" />
          </mxGeometry>
        </mxCell>
        <mxCell id="LaFHYY9eFYEwbgQ2csjO-3" value="" style="rounded=0;whiteSpace=wrap;html=1;" vertex="1" parent="1">
          <mxGeometry y="440" width="130" height="140" as="geometry" />
        </mxCell>
        <mxCell id="LaFHYY9eFYEwbgQ2csjO-4" value="Image" style="rounded=0;whiteSpace=wrap;html=1;" vertex="1" parent="1">
          <mxGeometry x="20" y="470" width="35" height="30" as="geometry" />
        </mxCell>
        <mxCell id="LaFHYY9eFYEwbgQ2csjO-5" value="Image" style="rounded=0;whiteSpace=wrap;html=1;" vertex="1" parent="1">
          <mxGeometry x="80" y="470" width="35" height="30" as="geometry" />
        </mxCell>
        <mxCell id="LaFHYY9eFYEwbgQ2csjO-6" value="Image" style="rounded=0;whiteSpace=wrap;html=1;" vertex="1" parent="1">
          <mxGeometry x="20" y="530" width="35" height="30" as="geometry" />
        </mxCell>
        <mxCell id="LaFHYY9eFYEwbgQ2csjO-7" value="Image" style="rounded=0;whiteSpace=wrap;html=1;" vertex="1" parent="1">
          <mxGeometry x="80" y="530" width="35" height="30" as="geometry" />
        </mxCell>
        <mxCell id="LaFHYY9eFYEwbgQ2csjO-10" value="" style="endArrow=classic;startArrow=classic;html=1;rounded=0;exitX=0.5;exitY=0;exitDx=0;exitDy=0;" edge="1" parent="1" source="LaFHYY9eFYEwbgQ2csjO-1" target="LaFHYY9eFYEwbgQ2csjO-11">
          <mxGeometry width="50" height="50" relative="1" as="geometry">
            <mxPoint x="390" y="450" as="sourcePoint" />
            <mxPoint x="65" y="290" as="targetPoint" />
          </mxGeometry>
        </mxCell>
        <mxCell id="LaFHYY9eFYEwbgQ2csjO-11" value="" style="whiteSpace=wrap;html=1;aspect=fixed;" vertex="1" parent="1">
          <mxGeometry x="-62.5" y="-52.5" width="262.5" height="262.5" as="geometry" />
        </mxCell>
        <mxCell id="LaFHYY9eFYEwbgQ2csjO-12" value="Internal DB" style="whiteSpace=wrap;html=1;aspect=fixed;" vertex="1" parent="1">
          <mxGeometry x="-30" y="-28.75" width="80" height="80" as="geometry" />
        </mxCell>
        <mxCell id="LaFHYY9eFYEwbgQ2csjO-13" value="Processing Function" style="whiteSpace=wrap;html=1;aspect=fixed;" vertex="1" parent="1">
          <mxGeometry x="100" y="-28.75" width="77.5" height="77.5" as="geometry" />
        </mxCell>
        <mxCell id="LaFHYY9eFYEwbgQ2csjO-14" value="Index" style="whiteSpace=wrap;html=1;aspect=fixed;" vertex="1" parent="1">
          <mxGeometry x="-30" y="100" width="80" height="80" as="geometry" />
        </mxCell>
        <mxCell id="LaFHYY9eFYEwbgQ2csjO-17" value="" style="ellipse;whiteSpace=wrap;html=1;" vertex="1" parent="1">
          <mxGeometry x="475" y="-157.5" width="265" height="597.5" as="geometry" />
        </mxCell>
        <mxCell id="LaFHYY9eFYEwbgQ2csjO-23" value="" style="endArrow=classic;startArrow=classic;html=1;rounded=0;entryX=1;entryY=0.5;entryDx=0;entryDy=0;exitX=0;exitY=0.5;exitDx=0;exitDy=0;" edge="1" parent="1" source="LaFHYY9eFYEwbgQ2csjO-24" target="LaFHYY9eFYEwbgQ2csjO-15">
          <mxGeometry width="50" height="50" relative="1" as="geometry">
            <mxPoint x="280" y="290" as="sourcePoint" />
            <mxPoint x="400" y="290" as="targetPoint" />
          </mxGeometry>
        </mxCell>
        <mxCell id="LaFHYY9eFYEwbgQ2csjO-24" value="Time Tracker API" style="rounded=0;whiteSpace=wrap;html=1;" vertex="1" parent="1">
          <mxGeometry x="260" y="160" width="120" height="60" as="geometry" />
        </mxCell>
        <UserObject label="Compress to 1 JSon File" placeholders="1" name="Variable" id="LaFHYY9eFYEwbgQ2csjO-25">
          <mxCell style="text;html=1;strokeColor=none;fillColor=none;align=center;verticalAlign=middle;whiteSpace=wrap;overflow=hidden;rotation=-15;" vertex="1" parent="1">
            <mxGeometry x="250" y="-52.5" width="160" height="20" as="geometry" />
          </mxCell>
        </UserObject>
        <mxCell id="LaFHYY9eFYEwbgQ2csjO-26" value="Prediction and Probability" style="text;html=1;align=center;verticalAlign=middle;resizable=0;points=[];autosize=1;strokeColor=none;fillColor=none;rotation=15;" vertex="1" parent="1">
          <mxGeometry x="210" y="260" width="160" height="30" as="geometry" />
        </mxCell>
        <mxCell id="LaFHYY9eFYEwbgQ2csjO-27" value="Skin Learning Training Model" style="rounded=0;whiteSpace=wrap;html=1;" vertex="1" parent="1">
          <mxGeometry x="532.5" y="310" width="145" height="50" as="geometry" />
        </mxCell>
        <mxCell id="LaFHYY9eFYEwbgQ2csjO-28" value="Prediction Skin Detection Machine Learning" style="rounded=0;whiteSpace=wrap;html=1;" vertex="1" parent="1">
          <mxGeometry x="532.5" y="-100" width="140" height="60" as="geometry" />
        </mxCell>
        <mxCell id="LaFHYY9eFYEwbgQ2csjO-15" value="Watcher" style="whiteSpace=wrap;html=1;aspect=fixed;" vertex="1" parent="1">
          <mxGeometry x="100" y="100" width="80" height="80" as="geometry" />
        </mxCell>
        <mxCell id="LaFHYY9eFYEwbgQ2csjO-39" value="" style="endArrow=classic;startArrow=classic;html=1;rounded=0;exitX=0.5;exitY=0;exitDx=0;exitDy=0;" edge="1" parent="1" source="LaFHYY9eFYEwbgQ2csjO-14">
          <mxGeometry width="50" height="50" relative="1" as="geometry">
            <mxPoint x="-40" y="101.25" as="sourcePoint" />
            <mxPoint x="10" y="51.25" as="targetPoint" />
          </mxGeometry>
        </mxCell>
        <mxCell id="LaFHYY9eFYEwbgQ2csjO-41" value="" style="endArrow=classic;html=1;rounded=0;entryX=0;entryY=0.5;entryDx=0;entryDy=0;exitX=1;exitY=0.5;exitDx=0;exitDy=0;" edge="1" parent="1" source="LaFHYY9eFYEwbgQ2csjO-13" target="LaFHYY9eFYEwbgQ2csjO-28">
          <mxGeometry width="50" height="50" relative="1" as="geometry">
            <mxPoint x="330" y="60" as="sourcePoint" />
            <mxPoint x="380" y="10" as="targetPoint" />
          </mxGeometry>
        </mxCell>
        <mxCell id="LaFHYY9eFYEwbgQ2csjO-53" value="" style="endArrow=classic;html=1;rounded=0;entryX=0.109;entryY=0.063;entryDx=0;entryDy=0;exitX=0.5;exitY=1;exitDx=0;exitDy=0;entryPerimeter=0;" edge="1" parent="1" target="LaFHYY9eFYEwbgQ2csjO-1">
          <mxGeometry width="50" height="50" relative="1" as="geometry">
            <mxPoint x="15" y="180" as="sourcePoint" />
            <mxPoint x="5" y="360" as="targetPoint" />
          </mxGeometry>
        </mxCell>
        <UserObject label="Showing Result&lt;br&gt;" placeholders="1" name="Variable" id="LaFHYY9eFYEwbgQ2csjO-54">
          <mxCell style="text;html=1;strokeColor=none;fillColor=none;align=center;verticalAlign=middle;whiteSpace=wrap;overflow=hidden;" vertex="1" parent="1">
            <mxGeometry x="-110" y="280" width="120" height="20" as="geometry" />
          </mxCell>
        </UserObject>
        <mxCell id="LaFHYY9eFYEwbgQ2csjO-61" value="" style="endArrow=classic;html=1;rounded=0;exitX=0;exitY=0;exitDx=0;exitDy=0;entryX=1;entryY=1;entryDx=0;entryDy=0;" edge="1" parent="1" source="LaFHYY9eFYEwbgQ2csjO-27" target="LaFHYY9eFYEwbgQ2csjO-14">
          <mxGeometry width="50" height="50" relative="1" as="geometry">
            <mxPoint x="530" y="280" as="sourcePoint" />
            <mxPoint x="580" y="230" as="targetPoint" />
          </mxGeometry>
        </mxCell>
        <mxCell id="LaFHYY9eFYEwbgQ2csjO-62" style="edgeStyle=orthogonalEdgeStyle;rounded=0;orthogonalLoop=1;jettySize=auto;html=1;exitX=0.5;exitY=1;exitDx=0;exitDy=0;" edge="1" parent="1">
          <mxGeometry relative="1" as="geometry">
            <mxPoint x="590" y="220" as="sourcePoint" />
            <mxPoint x="590" y="220" as="targetPoint" />
          </mxGeometry>
        </mxCell>
        <mxCell id="LaFHYY9eFYEwbgQ2csjO-63" style="edgeStyle=orthogonalEdgeStyle;rounded=0;orthogonalLoop=1;jettySize=auto;html=1;exitX=0.5;exitY=1;exitDx=0;exitDy=0;" edge="1" parent="1">
          <mxGeometry relative="1" as="geometry">
            <mxPoint x="612.5" y="610" as="sourcePoint" />
            <mxPoint x="612.5" y="610" as="targetPoint" />
          </mxGeometry>
        </mxCell>
        <mxCell id="LaFHYY9eFYEwbgQ2csjO-65" value="" style="endArrow=none;html=1;rounded=0;exitX=0.428;exitY=1.003;exitDx=0;exitDy=0;exitPerimeter=0;" edge="1" parent="1" source="LaFHYY9eFYEwbgQ2csjO-17">
          <mxGeometry width="50" height="50" relative="1" as="geometry">
            <mxPoint x="530" y="280" as="sourcePoint" />
            <mxPoint x="588" y="510" as="targetPoint" />
          </mxGeometry>
        </mxCell>
        <mxCell id="LaFHYY9eFYEwbgQ2csjO-66" value="Google Cloud Provider" style="rounded=0;whiteSpace=wrap;html=1;" vertex="1" parent="1">
          <mxGeometry x="500" y="510" width="180" height="90" as="geometry" />
        </mxCell>
        <mxCell id="LaFHYY9eFYEwbgQ2csjO-67" value="Chat GPT" style="rounded=0;whiteSpace=wrap;html=1;" vertex="1" parent="1">
          <mxGeometry x="495" y="140" width="220" height="60" as="geometry" />
        </mxCell>
        <mxCell id="LaFHYY9eFYEwbgQ2csjO-70" value="" style="endArrow=classic;html=1;rounded=0;entryX=0;entryY=0.5;entryDx=0;entryDy=0;" edge="1" parent="1">
          <mxGeometry width="50" height="50" relative="1" as="geometry">
            <mxPoint x="720" y="180" as="sourcePoint" />
            <mxPoint x="970" y="50" as="targetPoint" />
          </mxGeometry>
        </mxCell>
        <mxCell id="LaFHYY9eFYEwbgQ2csjO-79" value="Use Chat GPT to predict the description of skin" style="edgeLabel;html=1;align=center;verticalAlign=middle;resizable=0;points=[];rotation=-30;" vertex="1" connectable="0" parent="LaFHYY9eFYEwbgQ2csjO-70">
          <mxGeometry x="-0.2815" relative="1" as="geometry">
            <mxPoint x="40" y="-3" as="offset" />
          </mxGeometry>
        </mxCell>
        <mxCell id="LaFHYY9eFYEwbgQ2csjO-75" value="" style="endArrow=classic;startArrow=classic;html=1;rounded=0;exitX=0.5;exitY=0;exitDx=0;exitDy=0;entryX=0.5;entryY=1;entryDx=0;entryDy=0;" edge="1" parent="1" source="LaFHYY9eFYEwbgQ2csjO-27" target="LaFHYY9eFYEwbgQ2csjO-67">
          <mxGeometry width="50" height="50" relative="1" as="geometry">
            <mxPoint x="530" y="280" as="sourcePoint" />
            <mxPoint x="580" y="230" as="targetPoint" />
          </mxGeometry>
        </mxCell>
        <mxCell id="LaFHYY9eFYEwbgQ2csjO-77" value="" style="endArrow=classic;startArrow=classic;html=1;rounded=0;entryX=0.5;entryY=0;entryDx=0;entryDy=0;exitX=0.5;exitY=1;exitDx=0;exitDy=0;" edge="1" parent="1" source="LaFHYY9eFYEwbgQ2csjO-28" target="LaFHYY9eFYEwbgQ2csjO-67">
          <mxGeometry width="50" height="50" relative="1" as="geometry">
            <mxPoint x="530" y="280" as="sourcePoint" />
            <mxPoint x="580" y="230" as="targetPoint" />
          </mxGeometry>
        </mxCell>
        <mxCell id="LaFHYY9eFYEwbgQ2csjO-78" value="Produce First Prediction" style="edgeLabel;html=1;align=center;verticalAlign=middle;resizable=0;points=[];" vertex="1" connectable="0" parent="LaFHYY9eFYEwbgQ2csjO-77">
          <mxGeometry x="0.0407" relative="1" as="geometry">
            <mxPoint as="offset" />
          </mxGeometry>
        </mxCell>
        <mxCell id="LaFHYY9eFYEwbgQ2csjO-80" value="" style="shape=table;startSize=0;container=1;collapsible=0;childLayout=tableLayout;fontSize=16;" vertex="1" parent="1">
          <mxGeometry x="980" y="-110" width="370" height="450" as="geometry" />
        </mxCell>
        <mxCell id="LaFHYY9eFYEwbgQ2csjO-81" value="" style="shape=tableRow;horizontal=0;startSize=0;swimlaneHead=0;swimlaneBody=0;strokeColor=inherit;top=0;left=0;bottom=0;right=0;collapsible=0;dropTarget=0;fillColor=none;points=[[0,0.5],[1,0.5]];portConstraint=eastwest;fontSize=16;" vertex="1" parent="LaFHYY9eFYEwbgQ2csjO-80">
          <mxGeometry width="370" height="150" as="geometry" />
        </mxCell>
        <mxCell id="LaFHYY9eFYEwbgQ2csjO-82" value="Disease" style="shape=partialRectangle;html=1;whiteSpace=wrap;connectable=0;strokeColor=inherit;overflow=hidden;fillColor=none;top=0;left=0;bottom=0;right=0;pointerEvents=1;fontSize=16;" vertex="1" parent="LaFHYY9eFYEwbgQ2csjO-81">
          <mxGeometry width="123" height="150" as="geometry">
            <mxRectangle width="123" height="150" as="alternateBounds" />
          </mxGeometry>
        </mxCell>
        <mxCell id="LaFHYY9eFYEwbgQ2csjO-83" value="Picture ID" style="shape=partialRectangle;html=1;whiteSpace=wrap;connectable=0;strokeColor=inherit;overflow=hidden;fillColor=none;top=0;left=0;bottom=0;right=0;pointerEvents=1;fontSize=16;" vertex="1" parent="LaFHYY9eFYEwbgQ2csjO-81">
          <mxGeometry x="123" width="124" height="150" as="geometry">
            <mxRectangle width="124" height="150" as="alternateBounds" />
          </mxGeometry>
        </mxCell>
        <mxCell id="LaFHYY9eFYEwbgQ2csjO-84" value="Description" style="shape=partialRectangle;html=1;whiteSpace=wrap;connectable=0;strokeColor=inherit;overflow=hidden;fillColor=none;top=0;left=0;bottom=0;right=0;pointerEvents=1;fontSize=16;" vertex="1" parent="LaFHYY9eFYEwbgQ2csjO-81">
          <mxGeometry x="247" width="123" height="150" as="geometry">
            <mxRectangle width="123" height="150" as="alternateBounds" />
          </mxGeometry>
        </mxCell>
        <mxCell id="LaFHYY9eFYEwbgQ2csjO-85" value="" style="shape=tableRow;horizontal=0;startSize=0;swimlaneHead=0;swimlaneBody=0;strokeColor=inherit;top=0;left=0;bottom=0;right=0;collapsible=0;dropTarget=0;fillColor=none;points=[[0,0.5],[1,0.5]];portConstraint=eastwest;fontSize=16;" vertex="1" parent="LaFHYY9eFYEwbgQ2csjO-80">
          <mxGeometry y="150" width="370" height="150" as="geometry" />
        </mxCell>
        <mxCell id="LaFHYY9eFYEwbgQ2csjO-86" value="Acne" style="shape=partialRectangle;html=1;whiteSpace=wrap;connectable=0;strokeColor=inherit;overflow=hidden;fillColor=none;top=0;left=0;bottom=0;right=0;pointerEvents=1;fontSize=16;" vertex="1" parent="LaFHYY9eFYEwbgQ2csjO-85">
          <mxGeometry width="123" height="150" as="geometry">
            <mxRectangle width="123" height="150" as="alternateBounds" />
          </mxGeometry>
        </mxCell>
        <mxCell id="LaFHYY9eFYEwbgQ2csjO-87" value="1111&lt;br&gt;2222" style="shape=partialRectangle;html=1;whiteSpace=wrap;connectable=0;strokeColor=inherit;overflow=hidden;fillColor=none;top=0;left=0;bottom=0;right=0;pointerEvents=1;fontSize=16;" vertex="1" parent="LaFHYY9eFYEwbgQ2csjO-85">
          <mxGeometry x="123" width="124" height="150" as="geometry">
            <mxRectangle width="124" height="150" as="alternateBounds" />
          </mxGeometry>
        </mxCell>
        <mxCell id="LaFHYY9eFYEwbgQ2csjO-88" value="XXXX&lt;br&gt;YYYY" style="shape=partialRectangle;html=1;whiteSpace=wrap;connectable=0;strokeColor=inherit;overflow=hidden;fillColor=none;top=0;left=0;bottom=0;right=0;pointerEvents=1;fontSize=16;" vertex="1" parent="LaFHYY9eFYEwbgQ2csjO-85">
          <mxGeometry x="247" width="123" height="150" as="geometry">
            <mxRectangle width="123" height="150" as="alternateBounds" />
          </mxGeometry>
        </mxCell>
        <mxCell id="LaFHYY9eFYEwbgQ2csjO-89" value="" style="shape=tableRow;horizontal=0;startSize=0;swimlaneHead=0;swimlaneBody=0;strokeColor=inherit;top=0;left=0;bottom=0;right=0;collapsible=0;dropTarget=0;fillColor=none;points=[[0,0.5],[1,0.5]];portConstraint=eastwest;fontSize=16;" vertex="1" parent="LaFHYY9eFYEwbgQ2csjO-80">
          <mxGeometry y="300" width="370" height="150" as="geometry" />
        </mxCell>
        <mxCell id="LaFHYY9eFYEwbgQ2csjO-90" value="Moles" style="shape=partialRectangle;html=1;whiteSpace=wrap;connectable=0;strokeColor=inherit;overflow=hidden;fillColor=none;top=0;left=0;bottom=0;right=0;pointerEvents=1;fontSize=16;" vertex="1" parent="LaFHYY9eFYEwbgQ2csjO-89">
          <mxGeometry width="123" height="150" as="geometry">
            <mxRectangle width="123" height="150" as="alternateBounds" />
          </mxGeometry>
        </mxCell>
        <mxCell id="LaFHYY9eFYEwbgQ2csjO-91" value="3333&lt;br&gt;4444" style="shape=partialRectangle;html=1;whiteSpace=wrap;connectable=0;strokeColor=inherit;overflow=hidden;fillColor=none;top=0;left=0;bottom=0;right=0;pointerEvents=1;fontSize=16;" vertex="1" parent="LaFHYY9eFYEwbgQ2csjO-89">
          <mxGeometry x="123" width="124" height="150" as="geometry">
            <mxRectangle width="124" height="150" as="alternateBounds" />
          </mxGeometry>
        </mxCell>
        <mxCell id="LaFHYY9eFYEwbgQ2csjO-92" value="ZZZZ&lt;br&gt;MMM" style="shape=partialRectangle;html=1;whiteSpace=wrap;connectable=0;strokeColor=inherit;overflow=hidden;fillColor=none;top=0;left=0;bottom=0;right=0;pointerEvents=1;fontSize=16;" vertex="1" parent="LaFHYY9eFYEwbgQ2csjO-89">
          <mxGeometry x="247" width="123" height="150" as="geometry">
            <mxRectangle width="123" height="150" as="alternateBounds" />
          </mxGeometry>
        </mxCell>
        <mxCell id="LaFHYY9eFYEwbgQ2csjO-93" value="Database" style="rounded=0;whiteSpace=wrap;html=1;" vertex="1" parent="1">
          <mxGeometry x="1080" y="450" width="160" height="50" as="geometry" />
        </mxCell>
        <mxCell id="LaFHYY9eFYEwbgQ2csjO-97" value="" style="endArrow=none;html=1;rounded=0;exitX=0.468;exitY=0.991;exitDx=0;exitDy=0;exitPerimeter=0;" edge="1" parent="1" source="LaFHYY9eFYEwbgQ2csjO-89">
          <mxGeometry width="50" height="50" relative="1" as="geometry">
            <mxPoint x="1135.0200000000004" y="340.00000000000034" as="sourcePoint" />
            <mxPoint x="1153" y="446" as="targetPoint" />
          </mxGeometry>
        </mxCell>
        <mxCell id="LaFHYY9eFYEwbgQ2csjO-100" value="" style="endArrow=classic;html=1;rounded=0;exitX=0;exitY=0.25;exitDx=0;exitDy=0;entryX=1;entryY=0.5;entryDx=0;entryDy=0;" edge="1" parent="1" source="LaFHYY9eFYEwbgQ2csjO-93" target="LaFHYY9eFYEwbgQ2csjO-27">
          <mxGeometry width="50" height="50" relative="1" as="geometry">
            <mxPoint x="720" y="230" as="sourcePoint" />
            <mxPoint x="770" y="180" as="targetPoint" />
          </mxGeometry>
        </mxCell>
        <mxCell id="LaFHYY9eFYEwbgQ2csjO-101" value="Return the result and the percentage correlation with the database, &lt;br&gt;also use the information to train the Chat GPT" style="edgeLabel;html=1;align=center;verticalAlign=middle;resizable=0;points=[];rotation=20;" vertex="1" connectable="0" parent="LaFHYY9eFYEwbgQ2csjO-100">
          <mxGeometry x="0.0171" y="1" relative="1" as="geometry">
            <mxPoint x="-5" y="31" as="offset" />
          </mxGeometry>
        </mxCell>
        <mxCell id="LaFHYY9eFYEwbgQ2csjO-104" value="Keep &amp;nbsp;training the machine learning model by learning if there is new data in the database uploading" style="text;html=1;strokeColor=none;fillColor=none;align=center;verticalAlign=middle;whiteSpace=wrap;rounded=0;rotation=19;" vertex="1" parent="1">
          <mxGeometry x="740" y="360" width="320" height="30" as="geometry" />
        </mxCell>
        <mxCell id="LaFHYY9eFYEwbgQ2csjO-105" value="" style="endArrow=classic;html=1;rounded=0;entryX=0.5;entryY=1;entryDx=0;entryDy=0;" edge="1" parent="1" target="LaFHYY9eFYEwbgQ2csjO-93">
          <mxGeometry width="50" height="50" relative="1" as="geometry">
            <mxPoint x="1160" y="680" as="sourcePoint" />
            <mxPoint x="700" y="410" as="targetPoint" />
          </mxGeometry>
        </mxCell>
        <mxCell id="LaFHYY9eFYEwbgQ2csjO-106" value="Validating and Updating the Database" style="edgeLabel;html=1;align=center;verticalAlign=middle;resizable=0;points=[];" vertex="1" connectable="0" parent="LaFHYY9eFYEwbgQ2csjO-105">
          <mxGeometry x="0.0889" y="-2" relative="1" as="geometry">
            <mxPoint as="offset" />
          </mxGeometry>
        </mxCell>
        <mxCell id="LaFHYY9eFYEwbgQ2csjO-107" value="Database From Doctors/Health Department/Pharmacueutical Companies" style="rounded=0;whiteSpace=wrap;html=1;" vertex="1" parent="1">
          <mxGeometry x="1050" y="680" width="290" height="60" as="geometry" />
        </mxCell>
        <mxCell id="LaFHYY9eFYEwbgQ2csjO-108" value="" style="endArrow=classic;html=1;rounded=0;entryX=0.5;entryY=1;entryDx=0;entryDy=0;" edge="1" parent="1" target="LaFHYY9eFYEwbgQ2csjO-107">
          <mxGeometry width="50" height="50" relative="1" as="geometry">
            <mxPoint x="1195" y="950" as="sourcePoint" />
            <mxPoint x="1070" y="910" as="targetPoint" />
          </mxGeometry>
        </mxCell>
        <mxCell id="LaFHYY9eFYEwbgQ2csjO-110" value="" style="endArrow=classic;html=1;rounded=0;entryX=0.25;entryY=1;entryDx=0;entryDy=0;" edge="1" parent="1" target="LaFHYY9eFYEwbgQ2csjO-107">
          <mxGeometry width="50" height="50" relative="1" as="geometry">
            <mxPoint x="1123" y="960" as="sourcePoint" />
            <mxPoint x="1205" y="750" as="targetPoint" />
          </mxGeometry>
        </mxCell>
        <mxCell id="LaFHYY9eFYEwbgQ2csjO-111" value="" style="endArrow=classic;html=1;rounded=0;entryX=0.75;entryY=1;entryDx=0;entryDy=0;" edge="1" parent="1" target="LaFHYY9eFYEwbgQ2csjO-107">
          <mxGeometry width="50" height="50" relative="1" as="geometry">
            <mxPoint x="1270" y="950" as="sourcePoint" />
            <mxPoint x="1215" y="760" as="targetPoint" />
          </mxGeometry>
        </mxCell>
        <mxCell id="LaFHYY9eFYEwbgQ2csjO-112" value="Image" style="rounded=0;whiteSpace=wrap;html=1;" vertex="1" parent="1">
          <mxGeometry x="1060" y="960" width="80" height="60" as="geometry" />
        </mxCell>
        <mxCell id="LaFHYY9eFYEwbgQ2csjO-113" style="edgeStyle=orthogonalEdgeStyle;rounded=0;orthogonalLoop=1;jettySize=auto;html=1;entryX=1;entryY=0.25;entryDx=0;entryDy=0;" edge="1" parent="1" target="LaFHYY9eFYEwbgQ2csjO-112">
          <mxGeometry relative="1" as="geometry">
            <mxPoint x="1170" y="1000" as="sourcePoint" />
          </mxGeometry>
        </mxCell>
        <mxCell id="LaFHYY9eFYEwbgQ2csjO-114" value="Image" style="rounded=0;whiteSpace=wrap;html=1;" vertex="1" parent="1">
          <mxGeometry x="1150" y="960" width="80" height="60" as="geometry" />
        </mxCell>
        <mxCell id="LaFHYY9eFYEwbgQ2csjO-115" value="Image" style="rounded=0;whiteSpace=wrap;html=1;" vertex="1" parent="1">
          <mxGeometry x="1240" y="950" width="80" height="60" as="geometry" />
        </mxCell>
        <mxCell id="LaFHYY9eFYEwbgQ2csjO-116" value="Pharmaceutical Database&amp;nbsp;" style="ellipse;whiteSpace=wrap;html=1;" vertex="1" parent="1">
          <mxGeometry x="140" y="-380" width="250" height="130" as="geometry" />
        </mxCell>
        <mxCell id="LaFHYY9eFYEwbgQ2csjO-118" value="" style="endArrow=classic;html=1;rounded=0;entryX=0;entryY=1;entryDx=0;entryDy=0;" edge="1" parent="1" target="LaFHYY9eFYEwbgQ2csjO-116">
          <mxGeometry width="50" height="50" relative="1" as="geometry">
            <mxPoint x="30" y="-60" as="sourcePoint" />
            <mxPoint x="370" y="-50" as="targetPoint" />
          </mxGeometry>
        </mxCell>
        <mxCell id="LaFHYY9eFYEwbgQ2csjO-119" value="Give Predction of Symtom" style="edgeLabel;html=1;align=center;verticalAlign=middle;resizable=0;points=[];rotation=-50;" vertex="1" connectable="0" parent="LaFHYY9eFYEwbgQ2csjO-118">
          <mxGeometry x="-0.1232" y="7" relative="1" as="geometry">
            <mxPoint x="-16" y="6" as="offset" />
          </mxGeometry>
        </mxCell>
        <mxCell id="LaFHYY9eFYEwbgQ2csjO-125" value="" style="curved=1;endArrow=classic;html=1;rounded=0;exitX=0;exitY=0.5;exitDx=0;exitDy=0;" edge="1" parent="1" source="LaFHYY9eFYEwbgQ2csjO-116">
          <mxGeometry width="50" height="50" relative="1" as="geometry">
            <mxPoint x="-30" y="440" as="sourcePoint" />
            <mxPoint y="380" as="targetPoint" />
            <Array as="points">
              <mxPoint x="-380" y="-30" />
              <mxPoint x="-50" y="380" />
            </Array>
          </mxGeometry>
        </mxCell>
        <mxCell id="LaFHYY9eFYEwbgQ2csjO-126" value="Give back the suggestion pills" style="edgeLabel;html=1;align=center;verticalAlign=middle;resizable=0;points=[];" vertex="1" connectable="0" parent="LaFHYY9eFYEwbgQ2csjO-125">
          <mxGeometry x="-0.4711" y="23" relative="1" as="geometry">
            <mxPoint x="-149" y="66" as="offset" />
          </mxGeometry>
        </mxCell>
      </root>
    </mxGraphModel>
  </diagram>
</mxfile>
